# xmcd
#
# Track frame offsets:
#	150
#	16643
#	38515
#	59512
#	71934
#	88855
#	112348
#	125648
#	142303
#	156257
#	175429
#
# Disc length: 2455 seconds
#
# Revision: 0
# Processed by: cddbd v1.5PL3 Copyright (c) Steve Scherf et al.
# Submitted via: dBpowerAMP V4.0
#
DISCID=a709950b
DTITLE=John Crampton - Raven
DYEAR=2002
DGENRE=Booty Bass
TTITLE0=Micklepage Stomp
TTITLE1=Raven
TTITLE2=Sinner
TTITLE3=Jackass Stomp
TTITLE4=Rhumba Humba
TTITLE5=Tequila Blues
TTITLE6=So Shy
TTITLE7=Mother of Christ
TTITLE8=Maxies Gargle
TTITLE9=Raven (reprise)
TTITLE10=Atlantis
EXTD=
EXTT0=
EXTT1=
EXTT2=
EXTT3=
EXTT4=
EXTT5=
EXTT6=
EXTT7=
EXTT8=
EXTT9=
EXTT10=
PLAYORDER=
